<?xml version="1.0" encoding="UTF-8"?>
<svg width="126px" height="34px" viewBox="0 0 126 34" version="1.1" xmlns="http://www.w3.org/2000/svg" xmlns:xlink="http://www.w3.org/1999/xlink">
    <title>encrypta_symbol</title>
    <g id="Mockups" stroke="none" stroke-width="1" fill="none" fill-rule="evenodd">
        <g id="encrypta-2" transform="translate(-24, -18)">
            <g id="encrypta_symbol" transform="translate(24, 18)">
                <rect id="Rectangle" fill="#FFFFFF" x="0" y="0" width="34" height="34" rx="6"></rect>
                <g id="Group-2" transform="translate(11, 5)" fill="#023047">
                    <polygon id="Path-Copy" fill-rule="nonzero" points="0 5.38461538 3.27806346 5.38461538 5.53794055 16.0487541 6.10911827 16.0487541 8.36899536 5.38461538 11.6470588 5.38461538 7.25322965 25 4 25 5.38893766 19.1982665 3.05455914 19.1982665"></polygon>
                    <rect id="Rectangle-Copy" x="9.17647059" y="0" width="2.82352941" height="3.07692308"></rect>
                </g>
                <g id="Group-4-Copy" transform="translate(49, 8)" fill="#FFFFFF">
                    <path d="M2.76765376,10.6965649 C2.78132118,11.3403308 2.94874715,11.8056616 3.26993166,12.0925573 C3.59111617,12.3794529 4.0523918,12.5229008 4.65375854,12.5229008 C5.92482916,12.5229008 7.05922551,12.480916 8.05694761,12.3969466 L8.6309795,12.3339695 L8.67198178,14.4122137 C7.10022779,14.8040712 5.67881549,15 4.40774487,15 C2.86332574,15 1.74259681,14.5801527 1.04555809,13.740458 C0.348519362,12.9007634 0,11.5362595 0,9.64694656 C0,5.88231552 1.51025057,4 4.53075171,4 C7.51025057,4 9,5.58142494 9,8.74427481 L8.79498861,10.6965649 L2.76765376,10.6965649 Z M6.29384966,8.55534351 C6.29384966,7.71564885 6.16400911,7.13136132 5.90432802,6.80248092 C5.64464692,6.47360051 5.19020501,6.30916031 4.54100228,6.30916031 C3.89179954,6.30916031 3.43394077,6.48059796 3.16742597,6.82347328 C2.90091116,7.1663486 2.76082005,7.74363868 2.74715262,8.55534351 L6.29384966,8.55534351 Z" id="Shape" fill-rule="nonzero"></path>
                    <path d="M13.7788018,15 L11,15 L11,4.2578125 L13.7580645,4.2578125 L13.7580645,4.859375 C14.6981567,4.28645833 15.562212,4 16.3502304,4 C17.7327189,4 18.6866359,4.42252604 19.2119816,5.26757813 C19.7373272,6.11263021 20,7.41601562 20,9.17773438 L20,15 L17.2211982,15 L17.2211982,9.26367188 C17.2211982,8.34700521 17.1175115,7.6702474 16.9101382,7.23339844 C16.702765,6.79654948 16.2880184,6.578125 15.6658986,6.578125 C15.0990783,6.578125 14.5529954,6.67838542 14.0276498,6.87890625 L13.7788018,6.96484375 L13.7788018,15 Z" id="Path" fill-rule="nonzero"></path>
                    <path d="M26.5498652,4 C27.2973944,4 28.2533693,4.11195929 29.4177898,4.33587786 L30,4.46183206 L29.9137466,6.6870229 C28.7780773,6.57506361 27.9371069,6.51908397 27.3908356,6.51908397 C26.3989218,6.51908397 25.7412399,6.72550891 25.4177898,7.13835878 C25.0943396,7.55120865 24.9326146,8.33142494 24.9326146,9.47900763 C24.9326146,10.6265903 25.0943396,11.4138041 25.4177898,11.8406489 C25.7412399,12.2674936 26.4061096,12.480916 27.4123989,12.480916 L29.9137466,12.3129771 L30,14.5591603 C28.4618149,14.8530534 27.2902066,15 26.4851752,15 C24.8894879,15 23.7430368,14.562659 23.0458221,13.6879771 C22.3486074,12.8132952 22,11.4103053 22,9.47900763 C22,7.54770992 22.359389,6.15171756 23.0781671,5.29103053 C23.7969452,4.43034351 24.9541779,4 26.5498652,4 Z" id="Path" fill-rule="nonzero"></path>
                    <path d="M32,15 L32,4.2578125 L34.7235495,4.2578125 L34.7235495,5.39648438 C35.8703072,4.68033854 36.9624573,4.21484375 38,4 L38,6.90039063 C36.894198,7.14388021 35.9453925,7.39453125 35.1535836,7.65234375 L34.7440273,7.80273438 L34.7440273,15 L32,15 Z" id="Path" fill-rule="nonzero"></path>
                    <polygon id="Path" fill-rule="nonzero" points="39 4 41.8144989 4 43.7547974 12.1549296 44.2452026 12.1549296 46.1855011 4 49 4 45.2473348 19 42.4541578 19 43.6268657 14.5633803 41.6226013 14.5633803"></polygon>
                    <path d="M50,19 L50,4.24930748 L52.6959459,4.24930748 L52.6959459,4.81024931 C53.5743243,4.2700831 54.3445946,4 55.0067568,4 C56.3716216,4 57.3783784,4.41897507 58.027027,5.25692521 C58.6756757,6.09487535 59,7.51800554 59,9.52631579 C59,11.534626 58.6418919,12.9300554 57.9256757,13.7126039 C57.2094595,14.4951524 56.0337838,14.8864266 54.3986486,14.8864266 C53.9527027,14.8864266 53.472973,14.8448753 52.9594595,14.7617729 L52.7162162,14.7202216 L52.7162162,19 L50,19 Z M54.4797297,6.49307479 C53.9797297,6.49307479 53.472973,6.59695291 52.9594595,6.80470914 L52.7162162,6.90858726 L52.7162162,12.3518006 C53.3243243,12.434903 53.8175676,12.4764543 54.1959459,12.4764543 C54.9797297,12.4764543 55.5168919,12.2409972 55.8074324,11.7700831 C56.097973,11.299169 56.2432432,10.4958449 56.2432432,9.3601108 C56.2432432,7.44875346 55.6554054,6.49307479 54.4797297,6.49307479 Z" id="Shape" fill-rule="nonzero"></path>
                    <path d="M66.977918,6.44086022 L64.2618297,6.44086022 L64.2618297,10.8494624 C64.2618297,11.2795699 64.2728707,11.5842294 64.2949527,11.7634409 C64.3170347,11.9426523 64.3980021,12.0967742 64.5378549,12.2258065 C64.6777077,12.3548387 64.8948475,12.4193548 65.1892744,12.4193548 L66.8675079,12.3763441 L67,14.6774194 C66.0136698,14.8924731 65.2628812,15 64.7476341,15 C63.4227129,15 62.5173502,14.7096774 62.0315457,14.1290323 C61.5457413,13.5483871 61.3028391,12.4767025 61.3028391,10.9139785 L61.3028391,6.44086022 L60,6.44086022 L60,3.98924731 L61.3028391,3.98924731 L61.3028391,1 L64.2618297,1 L64.2618297,3.98924731 L66.977918,3.98924731 L66.977918,6.44086022 Z" id="Path" fill-rule="nonzero"></path>
                    <path d="M76.3385301,7.52671756 L76.3385301,11.8931298 C76.3652561,12.2290076 76.4187082,12.4634224 76.4988864,12.596374 C76.5790646,12.7293257 76.7461024,12.8237913 77,12.879771 L76.9198218,15 C76.2383073,15 75.6937639,14.9510178 75.2861915,14.8530534 C74.8786192,14.7550891 74.467706,14.5591603 74.0534521,14.2652672 C73.091314,14.7550891 72.1091314,15 71.1069042,15 C69.0356347,15 68,13.8524173 68,11.5572519 C68,10.437659 68.2873051,9.64344784 68.8619154,9.17461832 C69.4365256,8.7057888 70.3184855,8.42938931 71.5077951,8.34541985 L73.6525612,8.17748092 L73.6525612,7.52671756 C73.6525612,7.09287532 73.55902,6.79548346 73.3719376,6.63454198 C73.1848552,6.47360051 72.8841871,6.39312977 72.4699332,6.39312977 L68.701559,6.5610687 L68.6213808,4.60877863 C70.0512249,4.20292621 71.4109131,4 72.7004454,4 C73.9899777,4 74.9187082,4.27989822 75.486637,4.83969466 C76.0545657,5.39949109 76.3385301,6.29516539 76.3385301,7.52671756 Z M71.8285078,10.2977099 C71.0801782,10.3676845 70.7060134,10.7875318 70.7060134,11.5572519 C70.7060134,12.326972 71.0334076,12.7118321 71.688196,12.7118321 C72.1959911,12.7118321 72.7505568,12.6278626 73.3518931,12.4599237 L73.6525612,12.3759542 L73.6525612,10.129771 L71.8285078,10.2977099 Z" id="Shape" fill-rule="nonzero"></path>
                    <rect id="Rectangle" x="47" y="0" width="2" height="2"></rect>
                </g>
            </g>
        </g>
    </g>
</svg>