<?xml version="1.0" encoding="UTF-8"?>
<svg width="449px" height="810px" viewBox="0 0 449 810" version="1.1" xmlns="http://www.w3.org/2000/svg" xmlns:xlink="http://www.w3.org/1999/xlink">
    <title>login illustration</title>
    <defs>
        <path d="M63.685286,150.178341 L449,0 L449,0 L449,810 L0,810 L0,243.351521 C9.16360798e-15,202.137624 25.2849871,165.14505 63.685286,150.178341 Z" id="path-1"></path>
    </defs>
    <g id="Mockups" stroke="none" stroke-width="1" fill="none" fill-rule="evenodd">
        <g id="encrypta_Login" transform="translate(-631, 0)">
            <g id="login-illustration" transform="translate(631, 0)">
                <mask id="mask-2" fill="white">
                    <use xlink:href="#path-1"></use>
                </mask>
                <use id="Rectangle" fill="#FFFFFF" xlink:href="#path-1"></use>
                <g id="Data-Arranging_Two-Color" mask="url(#mask-2)" fill-rule="nonzero">
                    <g transform="translate(24, 226)">
                        <ellipse id="Oval" fill="#E6E6E6" opacity="0.45" cx="328" cy="465.5" rx="328" ry="22.5"></ellipse>
                        <path d="M136.839993,314 L119.180442,370.224647 C114.373235,385.553389 103.38255,398.187545 88.8529465,405.087104 L63,417.376319 L64.0341179,425 L102.73399,416.661599 C121.088834,411.236384 136.310852,398.353 144.675424,381.163835 L172,324.998748 L136.839993,314 Z" id="Path" fill="#F4A28C"></path>
                        <rect id="Rectangle" fill="#8ECAE6" x="279" y="141" width="195" height="325"></rect>
                        <polygon id="Rectangle" fill="#8ECAE6" transform="translate(366.9433, 66.4953) rotate(-9.34) translate(-366.9433, -66.4953)" points="269.347832 28.9777761 464.538677 28.9777761 464.538677 104.012902 269.347832 104.012902"></polygon>
                        <polygon id="Rectangle" fill="#229EBC" transform="translate(360.3969, 20.0182) rotate(-9.1805) translate(-360.3969, -20.0182)" points="302.173984 9.15001378 418.619808 9.15001378 418.619808 30.8863014 302.173984 30.8863014"></polygon>
                        <rect id="Rectangle" fill="#FFFFFF" opacity="0.07" x="295" y="237" width="163" height="52" rx="9.42935"></rect>
                        <circle id="Oval" fill="#229EBC" cx="428" cy="264" r="14"></circle>
                        <rect id="Rectangle" fill="#FFFFFF" x="311" y="257" width="82" height="13"></rect>
                        <rect id="Rectangle" fill="#FFFFFF" opacity="0.07" x="295" y="162" width="163" height="52" rx="9.42935"></rect>
                        <circle id="Oval" fill="#229EBC" cx="428" cy="188" r="14"></circle>
                        <rect id="Rectangle" fill="#FFFFFF" x="311" y="181" width="82" height="13"></rect>
                        <path d="M295.853312,41.8973149 L440.086629,41.8973149 C445.294315,41.8973149 449.515979,46.1189787 449.515979,51.3266649 L449.515979,84.5432399 C449.515979,89.7509261 445.294315,93.9725899 440.086629,93.9725899 L295.853312,93.9725899 C290.645626,93.9725899 286.423962,89.7509261 286.423962,84.5432399 L286.423962,51.3266649 C286.423962,46.1189787 290.645626,41.8973149 295.853312,41.8973149 Z" id="Rectangle" fill="#FFFFFF" opacity="0.07" transform="translate(367.97, 67.935) rotate(-9.1805) translate(-367.97, -67.935)"></path>
                        <circle id="Oval" fill="#229EBC" cx="418" cy="58" r="14"></circle>
                        <polygon id="Rectangle" fill="#FFFFFF" transform="translate(343.3532, 70.4401) rotate(-9.34) translate(-343.3532, -70.4401)" points="302.422256 63.842212 384.284186 63.842212 384.284186 77.0380446 302.422256 77.0380446"></polygon>
                        <rect id="Rectangle" fill="#FFFFFF" opacity="0.07" x="295" y="316" width="163" height="52" rx="9.42935"></rect>
                        <circle id="Oval" fill="#229EBC" cx="428" cy="342" r="14"></circle>
                        <rect id="Rectangle" fill="#FFFFFF" x="311" y="336" width="82" height="13"></rect>
                        <rect id="Rectangle" fill="#FFFFFF" opacity="0.07" x="295" y="395" width="163" height="52" rx="9.42935"></rect>
                        <circle id="Oval" fill="#229EBC" cx="428" cy="421" r="14"></circle>
                        <rect id="Rectangle" fill="#FFFFFF" x="311" y="415" width="82" height="13"></rect>
                        <polygon id="Path" fill="#F4A28C" points="195.796575 330 204 450.341184 196.368448 453 166 340.417003"></polygon>
                        <path d="M206.043559,452.100448 C206.043559,452.100448 207.731453,459.145138 213.176921,461.342924 C218.622389,463.54071 215.869514,471.154469 207.671171,466.543043 C205.122603,465.095046 202.70285,463.440912 200.437339,461.598024 C198.308056,459.969998 195.779488,458.91462 193.103038,458.536822 C192.0795,458.356388 191.278403,457.574065 191.09364,456.574513 C189.988471,452.649895 199.030761,449 199.030761,449 L206.043559,452.100448 Z" id="Path" fill="#03045A"></path>
                        <path d="M64.881378,425.364375 C64.881378,425.364375 59.4643055,429.534452 59.6224682,434.975409 C59.7806309,440.416366 52.1492806,441.071664 53.0784864,432.354218 C53.3576839,429.669061 53.860289,427.012108 54.5810321,424.411215 C55.1878158,421.986818 55.1400442,419.443762 54.4426397,417.04408 C54.2435602,416.082975 54.6516768,415.0976 55.4706973,414.561891 C58.4164776,412.139276 65,418.334818 65,418.334818 L64.881378,425.364375 Z" id="Path" fill="#03045A"></path>
                        <polygon id="Path" fill="#F4A28C" points="149.151079 154.306613 152 165.98998 142.642086 171 141 151"></polygon>
                        <path d="M139.223011,140.692777 C140.366379,138.611427 142.51254,137.232482 144.928862,137.026671 C147.345183,136.820859 149.704951,137.816008 151.202615,139.672406 C154.731959,143.98936 158.866334,150.739506 153.219383,153.800619 C144.728789,158.490402 138.133957,147.913864 138.133957,147.913864 C137.771022,145.455012 138.149343,142.946521 139.223011,140.692777 L139.223011,140.692777 Z" id="Path" fill="#F4A28C"></path>
                        <polygon id="Rectangle" fill="#FFD200" transform="translate(82.9105, 225.59) rotate(-127.97) translate(-82.9105, -225.59)" points="48.7764866 201.47723 117.044519 201.47723 117.044519 249.702724 48.7764866 249.702724"></polygon>
                        <path d="M100.490083,191 C100.490083,191 59.9707013,254.145241 68.0705973,263.446472 C93.8230924,292.956559 151,226.479534 151,226.479534 L100.490083,191 Z" id="Path" fill="#F4A28C"></path>
                        <path d="M192.313823,181.496374 C168.512189,164.05067 136.364877,163.467913 111.951159,180.039582 C101.354104,187.28363 93.1826402,198.000031 96.9204386,213.765314 C105.688359,250.484454 133.721846,274.691148 134.69606,307 L201.061861,302.529844 L201.061861,260.941426 C201.027343,252.989008 204.307317,245.384373 210.108129,239.967613 C215.893763,234.619391 221.639634,225.898595 217.703017,213.905006 C214.124274,203.268429 205.078006,190.895676 192.313823,181.496374 Z" id="Path" fill="#FC8500"></path>
                        <path d="M144.088975,147.665586 C144.088975,147.665586 142.178247,145.902266 141.184668,148.115795 C140.19109,150.329324 143.477542,151.69871 144.604872,150.629463 C145.732201,149.560216 144.088975,147.665586 144.088975,147.665586 Z" id="Path" fill="#F4A28C"></path>
                        <path d="M159.59497,198.708764 C159.59497,198.708764 145.271668,226.204511 161.899413,253.002396 C178.527158,279.800282 147,306 147,306 L201.074936,302.351181 L201.074936,278.663764 C201.074936,278.663764 197.737467,248.75541 208.047861,241.956244 C208.047861,241.956244 225.688766,229.195346 216.192873,209.87455 C206.696981,190.553753 159.59497,198.708764 159.59497,198.708764" id="Path" fill="#000000" opacity="0.08"></path>
                        <path d="M131.028512,182.229727 C132.316817,177.238142 138.295358,168.19716 129.860986,151.779057 C128.089566,148.311008 126.680483,140.192165 130.042154,134.579139 C138.09406,121.127921 150.93685,125.718575 149.406988,133.256068 C147.877126,140.793561 146.810248,144.381889 146.810248,144.381889 C146.810248,144.381889 171.207524,161.802319 167.644556,174.652141 C164.484183,185.978427 125.593475,202.957833 131.028512,182.229727 Z" id="Path" fill="#24285B"></path>
                        <polygon id="Path" fill="#229EBC" points="131.512573 290 200.94294 290 212 386 109 381.361261"></polygon>
                        <path d="M162.441336,217.834282 C159.127357,213.817234 157.5654,208.643904 158.104489,203.470288 C158.643578,198.296672 161.23878,193.553996 165.310188,190.302026 C169.325587,187.175615 173.57484,184.359888 178.020798,181.87946 C204.497915,166.762543 248.506908,133.350382 267.034913,87.264643 C267.034913,87.264643 271.378037,70.4195109 284.26795,71.0154471 C297.157863,71.6113834 292.715126,87.5824757 279.884981,87.4235594 C279.884981,87.4235594 269.385778,187.421667 192.345138,224.627955 C182.003648,229.497861 169.663585,226.692523 162.461259,217.834282 L162.441336,217.834282 Z" id="Path" fill="#F4A28C"></path>
                        <polygon id="Path" fill="#E6E6E6" points="113 51 113 87.4824766 136.812649 87.4824766 142.028562 102 148.187351 87.4824766 172 87.4824766 172 51"></polygon>
                        <path d="M139.81019,77.9997695 L139.81019,77.9997695 C139.280267,77.9731055 138.78935,77.7139357 138.469334,77.2918921 L132.336889,69.4265871 C131.772934,68.6374957 131.932634,67.5454099 132.699083,66.949781 C133.465531,66.3541521 134.566514,66.4665251 135.196067,67.2046385 L140.007374,73.3789029 L151.838457,60.5977824 C152.276276,60.1134859 152.941573,59.9016151 153.579838,60.0432217 C154.218103,60.1848283 154.730561,60.6579985 154.921171,61.2817192 C155.11178,61.9054399 154.951043,62.5831886 154.500451,63.0556902 L141.151046,77.4491982 C140.79893,77.808629 140.314014,78.0077411 139.81019,77.9997695 L139.81019,77.9997695 Z" id="Path" fill="#000000" opacity="0.12"></path>
                    </g>
                </g>
            </g>
        </g>
    </g>
</svg>