<?xml version="1.0" encoding="UTF-8"?>
<svg width="126px" height="31px" viewBox="0 0 126 31" version="1.1" xmlns="http://www.w3.org/2000/svg" xmlns:xlink="http://www.w3.org/1999/xlink">
    <title>logo_white</title>
    <g id="Mockups" stroke="none" stroke-width="1" fill="none" fill-rule="evenodd">
        <g id="encrypta_Register-2" transform="translate(-274, -208)" fill="#FFFFFF">
            <g id="Group-2" transform="translate(117, 208)">
                <g id="logo_white" transform="translate(157, 0)">
                    <path d="M4.56032172,17.2343934 C4.58284182,18.2819003 4.85871314,19.0390656 5.38793566,19.5058893 C5.91715818,19.972713 6.6772118,20.2061249 7.66809651,20.2061249 C9.76246649,20.2061249 11.6316354,20.1378092 13.2756032,20.0011779 L14.2214477,19.8987044 L14.289008,23.2803298 C11.6991957,23.9179427 9.35710456,24.2367491 7.26273458,24.2367491 C4.71796247,24.2367491 2.87131367,23.5535925 1.7227882,22.1872792 C0.574262735,20.8209658 0,18.6007067 0,15.5265018 C0,9.40086376 2.48847185,6.33804476 7.46541555,6.33804476 C12.3747989,6.33804476 14.8294906,8.91126816 14.8294906,14.057715 L14.491689,17.2343934 L4.56032172,17.2343934 Z M10.3705094,13.7502945 C10.3705094,12.3839812 10.1565684,11.4332548 9.72868633,10.8981154 C9.30080429,10.3629761 8.55201072,10.0954064 7.48230563,10.0954064 C6.41260054,10.0954064 5.65817694,10.374362 5.21903485,10.9322733 C4.77989276,11.4901845 4.54906166,12.4295249 4.52654155,13.7502945 L10.3705094,13.7502945 Z" id="Shape" fill-rule="nonzero"></path>
                    <path d="M22.5989276,23.8268551 L18.0723861,23.8268551 L18.0723861,6.74793875 L22.5651475,6.74793875 L22.5651475,7.70435807 C24.0965147,6.79348253 25.5040214,6.33804476 26.7876676,6.33804476 C29.0396783,6.33804476 30.5935657,7.00981547 31.4493298,8.35335689 C32.3050938,9.69689831 32.7329759,11.7691402 32.7329759,14.5700824 L32.7329759,23.8268551 L28.2064343,23.8268551 L28.2064343,14.7067138 C28.2064343,13.2493129 28.0375335,12.1733412 27.6997319,11.4787986 C27.3619303,10.784256 26.6863271,10.4369847 25.6729223,10.4369847 C24.7495979,10.4369847 23.8600536,10.5963879 23.0042895,10.9151943 L22.5989276,11.0518257 L22.5989276,23.8268551 Z" id="Path" fill-rule="nonzero"></path>
                    <path d="M43.0697051,6.33804476 C44.2407507,6.33804476 45.7383378,6.52021987 47.5624665,6.88457008 L48.4745308,7.08951708 L48.3394102,10.7102473 C46.5603217,10.5280722 45.2428954,10.4369847 44.3871314,10.4369847 C42.833244,10.4369847 41.8029491,10.77287 41.2962466,11.4446408 C40.7895442,12.1164115 40.536193,13.3859442 40.536193,15.2532391 C40.536193,17.120534 40.7895442,18.4014527 41.2962466,19.0959953 C41.8029491,19.7905379 42.844504,20.1378092 44.4209115,20.1378092 L48.3394102,19.8645465 L48.4745308,23.5194346 C46.0648794,23.9976443 44.2294906,24.2367491 42.9683646,24.2367491 C40.4686327,24.2367491 38.6726542,23.5251276 37.580429,22.1018846 C36.4882038,20.6786415 35.9420912,18.3957597 35.9420912,15.2532391 C35.9420912,12.1107185 36.5050938,9.83922261 37.6310992,8.43875147 C38.7571046,7.03828033 40.5699732,6.33804476 43.0697051,6.33804476 Z" id="Path" fill-rule="nonzero"></path>
                    <path d="M51.8187668,23.8268551 L51.8187668,6.74793875 L56.3115282,6.74793875 L56.3115282,8.55830389 C58.2032172,7.41970946 60.0048257,6.67962309 61.7163539,6.33804476 L61.7163539,10.9493522 C59.8922252,11.3364743 58.3270777,11.7349823 57.0209115,12.1448763 L56.3453083,12.3839812 L56.3453083,23.8268551 L51.8187668,23.8268551 Z" id="Path" fill-rule="nonzero"></path>
                    <polygon id="Path" fill-rule="nonzero" points="62.8310992 6.74793875 67.2900804 6.74793875 70.3640751 19.9328622 71.1410188 19.9328622 74.2150134 6.74793875 78.6739946 6.74793875 72.7286863 31 68.3034853 31 70.1613941 23.8268551 66.986059 23.8268551"></polygon>
                    <path d="M81.275067,31 L81.275067,6.74793875 L85.7678284,6.74793875 L85.7678284,7.67020024 C87.2316354,6.78209658 88.5152815,6.33804476 89.6187668,6.33804476 C91.8932976,6.33804476 93.5710456,7.02689439 94.6520107,8.40459364 C95.7329759,9.78229289 96.2734584,12.1221044 96.2734584,15.4240283 C96.2734584,18.7259521 95.6766756,21.0202199 94.4831099,22.3068316 C93.2895442,23.5934433 91.3302949,24.2367491 88.6053619,24.2367491 C87.8621984,24.2367491 87.0627346,24.1684335 86.2069705,24.0318021 L85.8016086,23.9634865 L85.8016086,31 L81.275067,31 Z M88.7404826,10.4369847 C87.9072386,10.4369847 87.0627346,10.6077739 86.2069705,10.9493522 L85.8016086,11.1201413 L85.8016086,20.0694935 C86.8150134,20.2061249 87.6369973,20.2744405 88.2675603,20.2744405 C89.5737265,20.2744405 90.4689008,19.8873184 90.9530831,19.1130742 C91.4372654,18.33883 91.6793566,17.0180605 91.6793566,15.1507656 C91.6793566,12.008245 90.6997319,10.4369847 88.7404826,10.4369847 Z" id="Shape" fill-rule="nonzero"></path>
                    <path d="M109.008579,10.6419317 L104.853619,10.6419317 L104.853619,17.6442874 C104.853619,18.3274441 104.870509,18.8113467 104.90429,19.0959953 C104.93807,19.3806439 105.06193,19.6254417 105.275871,19.8303887 C105.489812,20.0353357 105.821984,20.1378092 106.272386,20.1378092 L108.839678,20.0694935 L109.042359,23.7243816 C107.533512,24.06596 106.384987,24.2367491 105.596783,24.2367491 C103.569973,24.2367491 102.184987,23.7756184 101.441823,22.8533569 C100.69866,21.9310954 100.327078,20.2288967 100.327078,17.7467609 L100.327078,10.6419317 L98.3340483,10.6419317 L98.3340483,6.74793875 L100.327078,6.74793875 L100.327078,2 L104.853619,2 L104.853619,6.74793875 L109.008579,6.74793875 L109.008579,10.6419317 Z" id="Path" fill-rule="nonzero"></path>
                    <path d="M124.885255,12.0765607 L124.885255,19.1813899 C124.930295,19.7279152 125.020375,20.1093443 125.155496,20.3256773 C125.290617,20.5420102 125.572118,20.6957205 126,20.786808 L125.864879,24.2367491 C124.716354,24.2367491 123.79866,24.1570475 123.111796,23.9976443 C122.424933,23.8382411 121.73244,23.5194346 121.034316,23.041225 C119.412869,23.8382411 117.757641,24.2367491 116.068633,24.2367491 C112.578016,24.2367491 110.832708,22.3694543 110.832708,18.6348645 C110.832708,16.8131135 111.31689,15.5208088 112.285255,14.7579505 C113.253619,13.9950923 114.739946,13.5453475 116.744236,13.4087161 L120.358713,13.1354535 L120.358713,12.0765607 C120.358713,11.3706321 120.201072,10.8867295 119.885791,10.6248528 C119.570509,10.3629761 119.063807,10.2320377 118.365684,10.2320377 L112.015013,10.5053004 L111.879893,7.32862191 C114.289544,6.66823714 116.580965,6.33804476 118.754155,6.33804476 C120.927346,6.33804476 122.492493,6.79348253 123.449598,7.70435807 C124.406702,8.61523361 124.885255,10.0726345 124.885255,12.0765607 Z M117.284718,16.5853946 C116.023592,16.699254 115.393029,17.3824107 115.393029,18.6348645 C115.393029,19.8873184 115.944772,20.5135453 117.048257,20.5135453 C117.904021,20.5135453 118.838606,20.376914 119.852011,20.1036514 L120.358713,19.96702 L120.358713,16.3121319 L117.284718,16.5853946 Z" id="Shape" fill-rule="nonzero"></path>
                    <rect id="Rectangle" x="75" y="0" width="4" height="4"></rect>
                </g>
            </g>
        </g>
    </g>
</svg>